<?xml version="1.0" encoding="UTF-8"?>
<!DOCTYPE svg PUBLIC "-//W3C//DTD SVG 1.1//EN" "http://www.w3.org/Graphics/SVG/1.1/DTD/svg11.dtd">
<!-- Creator: CorelDRAW -->
<svg xmlns="http://www.w3.org/2000/svg" xml:space="preserve" width="100%" height="100%" style="shape-rendering:geometricPrecision; text-rendering:geometricPrecision; image-rendering:optimizeQuality; fill-rule:evenodd; clip-rule:evenodd"
viewBox="0 0 8.5 11"
 xmlns:xlink="http://www.w3.org/1999/xlink">
 <defs>
  <style type="text/css">
   <![CDATA[
    .str0 {stroke:#1F1A17;stroke-width:0.00694488}
    .fil1 {fill:none;fill-rule:nonzero}
    .fil2 {fill:#1F1A17;fill-rule:nonzero}
    .fil0 {fill:#E77817;fill-rule:nonzero}
   ]]>
  </style>
 </defs>
 <g id="Layer_x0020_1">
  <metadata id="CorelCorpID_0Corel-Layer"/>
  <path class="fil0" d="M-6.27036 -5.01082l0.359335 0c0.0390906,0 0.0680709,0.0038189 0.0870512,0.0115669 0.0189843,0.00764173 0.0340354,0.0221299 0.0452677,0.043248 0.011122,0.0212283 0.0167362,0.0445945 0.0167362,0.070315 0,0.0278583 -0.00662598,0.0534685 -0.0197677,0.0769449 -0.0131417,0.0234764 -0.0325748,0.0395394 -0.0584094,0.048189 -0.0257244,0.00864961 -0.0615551,0.0130276 -0.107386,0.0130276l-0.0780669 0 0 0.162539 0.0605433 0 0 0.0155 -0.305303 0 0 -0.0155 0.0525709 0 0 -0.410331 -0.0525709 0 0 -0.0155zm0.31485 0.199492l0 -0.115921c0,-0.0201063 -0.00134646,-0.0350472 -0.00426772,-0.0447087 -0.00280709,-0.00965748 -0.0070748,-0.0159488 -0.0125787,-0.0188701 -0.00561811,-0.0030315 -0.0152756,-0.00449213 -0.0288701,-0.00449213l-0.024374 0 0 0.232291 0.0237008 0c0.0310039,0 0.0463898,-0.016063 0.0463898,-0.0482992z"/>
  <path id="1" class="fil0" d="M-5.47565 -5.02498c0.0766102,0 0.136929,0.0211181 0.181185,0.0632402 0.0441457,0.042122 0.0662717,0.0996339 0.0662717,0.172421 0,0.0688543 -0.0216772,0.12502 -0.0651496,0.168378 -0.0434685,0.0432441 -0.10289,0.0649252 -0.178374,0.0649252 -0.0754843,0 -0.136028,-0.0213425 -0.181634,-0.0640276 -0.0456024,-0.042685 -0.0684055,-0.100197 -0.0684055,-0.172535 0,-0.0706535 0.0222402,-0.127039 0.0669488,-0.169161 0.0445906,-0.042122 0.10435,-0.0632402 0.179157,-0.0632402zm0.0371811 0.404827l0 -0.340913c0,-0.0287559 -0.0112323,-0.0431339 -0.0339213,-0.0431339 -0.0244882,0 -0.0368425,0.0150512 -0.0368425,0.0450433l0 0.341248c0,0.0149409 0.00280709,0.0256102 0.0084252,0.032126 0.00561417,0.00651575 0.0150512,0.00966142 0.0284173,0.00966142 0.022689,0 0.0339213,-0.0146024 0.0339213,-0.0440315z"/>
  <path id="12" class="fil0" d="M-5.13182 -4.67946c0.0208898,0 0.0389764,0.00595276 0.0543661,0.0178622 0.0152756,0.0117913 0.0230276,0.0256102 0.0230276,0.0414488 0,0.0175197 -0.00707874,0.0318976 -0.0211181,0.0429055 -0.0140433,0.011122 -0.032126,0.016626 -0.0542559,0.016626 -0.0228031,0 -0.0418976,-0.00584252 -0.0572874,-0.0176339 -0.0153858,-0.011685 -0.0230236,-0.0261732 -0.0230236,-0.043248 0,-0.0159488 0.0076378,-0.0296535 0.0229134,-0.041 0.0151654,-0.0112323 0.0336969,-0.0169606 0.055378,-0.0169606z"/>
  <path id="123" class="fil0" d="M-4.43775 -4.86996c-0.000562992,-0.0434724 -0.0175236,-0.0768346 -0.0506575,-0.100311 -0.0331378,-0.0234764 -0.0669488,-0.0352677 -0.101657,-0.0352677 -0.0165118,0 -0.0297677,0.00449213 -0.0399882,0.0134764 -0.0102205,0.00898819 -0.0152756,0.0206693 -0.0152756,0.034937 0,0.0108937 0.00325591,0.0199921 0.00965748,0.0269567 0.00651575,0.0070748 0.0189843,0.0156142 0.0374055,0.0257244 0.0651496,0.0361693 0.108173,0.0621142 0.129177,0.0779528 0.0208937,0.0158386 0.0354961,0.0325748 0.0435827,0.0503228 0.00808661,0.017748 0.0121299,0.0384173 0.0121299,0.0618937 0,0.0359409 -0.00954724,0.0659331 -0.0286417,0.0898583 -0.0190945,0.0239252 -0.0450433,0.0412244 -0.0778425,0.052122 -0.0327992,0.0108937 -0.0624528,0.0162874 -0.0889646,0.0162874 -0.0412244,0 -0.0798622,-0.0139291 -0.115807,-0.0417874l-0.059311 0.0463898 0 -0.185898 0.0168504 0 0 0.00190945c0,0.0305512 0.00572835,0.0562756 0.0172992,0.0771693 0.0114567,0.0210039 0.0294291,0.0397598 0.0539173,0.0562756 0.0244882,0.016622 0.0494213,0.0249331 0.0749213,0.0249331 0.0230276,0 0.0415591,-0.00482677 0.0557126,-0.014378 0.0141535,-0.00954724 0.0212323,-0.0220157 0.0212323,-0.0372913 0,-0.00898425 -0.00292126,-0.0174094 -0.00876378,-0.0251614 -0.00572835,-0.0078622 -0.0135906,-0.014937 -0.0234764,-0.0214528 -0.00988189,-0.00651575 -0.032685,-0.0189843 -0.0684055,-0.0376299 -0.0825591,-0.0434724 -0.123783,-0.0955906 -0.123783,-0.156358 0,-0.0439213 0.0161732,-0.0804252 0.0484134,-0.109744 0.0322362,-0.0293189 0.0724488,-0.0439213 0.120748,-0.0439213 0.0159528,0 0.033252,0.00190945 0.0516732,0.00595276 0.0184213,0.00393307 0.0402126,0.0138189 0.0654843,0.0295433l0.0605433 -0.0457165 0 0.163213 -0.0161732 0z"/>
  <path id="1234" class="fil0" d="M-3.87466 -4.56949l-0.27026 0 0 -0.0155 0.0497638 0 -0.0417874 -0.120079 -0.153102 0c-0.00392913,0.0131417 -0.00583858,0.0257244 -0.00583858,0.0378543 0,0.023252 0.00583858,0.042685 0.0175236,0.0584094 0.0117913,0.0157244 0.0325748,0.0235906 0.0624528,0.023815l0 0.0155 -0.171862 0 0 -0.0155c0.0130315,-0.00438189 0.026063,-0.016063 0.039315,-0.0350472 0.0133661,-0.0189843 0.0242638,-0.0405512 0.0327992,-0.0645866l0.117496 -0.326197 0.15074 0 0.148386 0.425831 0.024374 0 0 0.0155zm-0.26689 -0.151079l-0.071437 -0.205335 -0.00135039 0 -0.0707638 0.205335 0.143551 0z"/>
  <path id="12345" class="fil0" d="M-3.41592 -4.87424l-0.0148268 0c-0.00415748,-0.0216772 -0.00999606,-0.0395394 -0.0172992,-0.0535787 -0.00729921,-0.0140394 -0.0178583,-0.0267323 -0.031563,-0.0380787 -0.0137047,-0.0112323 -0.0272953,-0.0189843 -0.0407756,-0.0231378 -0.0135906,-0.00415748 -0.0318976,-0.00629134 -0.0551496,-0.00629134l-0.0310039 0 0 0.200055c0.0220157,-0.000448819 0.039315,-0.00426772 0.0518937,-0.0114567 0.0125827,-0.00730315 0.0222441,-0.0181969 0.0289803,-0.0328031 0.00662992,-0.0146024 0.01,-0.0351575 0.01,-0.0616654l0.0155 0 0 0.219823 -0.0155 0c-0.000901575,-0.0347087 -0.0076378,-0.0597559 -0.0202205,-0.0752598 -0.0125787,-0.0153858 -0.0352717,-0.0231378 -0.0679567,-0.0231378l-0.00269685 0 0 0.194776 0.0586339 0 0 0.0155 -0.301823 0 0 -0.0155 0.051 0 0 -0.410331 -0.051 0 0 -0.0155 0.433807 0 0 0.136587z"/>
  <path id="123456" class="fil0" d="M-2.95392 -4.56949l-0.27026 0 0 -0.0155 0.0497638 0 -0.0417874 -0.120079 -0.153102 0c-0.00392913,0.0131417 -0.00583858,0.0257244 -0.00583858,0.0378543 0,0.023252 0.00583858,0.042685 0.0175236,0.0584094 0.0117913,0.0157244 0.0325748,0.0235906 0.0624528,0.023815l0 0.0155 -0.171862 0 0 -0.0155c0.0130315,-0.00438189 0.026063,-0.016063 0.039315,-0.0350472 0.0133661,-0.0189843 0.0242638,-0.0405512 0.0327992,-0.0645866l0.117496 -0.326197 0.15074 0 0.148386 0.425831 0.024374 0 0 0.0155zm-0.26689 -0.151079l-0.071437 -0.205335 -0.00135039 0 -0.0707638 0.205335 0.143551 0z"/>
  <path id="1234567" class="fil0" d="M-2.38993 -4.64352c-0.00988583,0.054815 -0.0424606,0.0822244 -0.0977244,0.0822244 -0.0239252,0 -0.0440315,-0.00269685 -0.0602087,-0.00808661 -0.0162874,-0.00527953 -0.0294291,-0.0138189 -0.0396496,-0.0252756 -0.0102244,-0.0115709 -0.0174134,-0.0258346 -0.0216811,-0.0427953 -0.00437795,-0.0169606 -0.00651575,-0.0550394 -0.00651575,-0.114012 0,-0.0169606 -0.00314173,-0.0283071 -0.00954724,-0.0342598 -0.0062874,-0.00595276 -0.0184213,-0.00887402 -0.0361693,-0.00887402 -0.0107835,0 -0.0188701,0.000224409 -0.024374,0.000673228l0 0.208929 0.0444803 0 0 0.0155 -0.288567 0 0 -0.0155 0.0518976 0 0 -0.410331 -0.0518976 0 0 -0.0155 0.366185 0c0.0579606,0 0.0953661,0.0104449 0.112441,0.0311142 0.0169606,0.0207795 0.0254961,0.0451535 0.0254961,0.0732362 0,0.0255 -0.00662598,0.0472913 -0.0197677,0.0655984 -0.0131417,0.0184213 -0.0319016,0.0314528 -0.0562756,0.0394252 0.0305512,0.0108976 0.0500984,0.023252 0.0589724,0.0368465 0.00875984,0.0135906 0.0131417,0.0323504 0.0131417,0.0562756l-0.00202362 0.0673937c0,0.0125827 0.00280709,0.0187598 0.00820079,0.0187598 0.00292126,0 0.00617717,-0.00247244 0.00977165,-0.00741339 0.00359449,-0.00494094 0.00617717,-0.0110079 0.00775197,-0.0181969l0.016063 0.00426772zm-0.225102 -0.212972l0 -0.0931181c0,-0.0186457 -0.00314567,-0.0308898 -0.00955118,-0.0368425 -0.0062874,-0.00595276 -0.0194291,-0.00887402 -0.0390866,-0.00887402l-0.0221299 0 0 0.185902 0.0115709 0c0.0230276,0 0.0386378,-0.00348425 0.0468386,-0.0105591 0.00831496,-0.00696457 0.0123583,-0.0190945 0.0123583,-0.0365079z"/>
  <polygon id="12345678" class="fil0" points="-2.05025,-4.56949 -2.3468,-4.56949 -2.3468,-4.58499 -2.2958,-4.58499 -2.2958,-4.99532 -2.3468,-4.99532 -2.3468,-5.01082 -2.05025,-5.01082 -2.05025,-4.99532 -2.10361,-4.99532 -2.10361,-4.58499 -2.05025,-4.58499 "/>
  <path id="123456789" class="fil1 str0" d="M-6.27036 -5.01082l0.359335 0c0.0390906,0 0.0680709,0.0038189 0.0870512,0.0115669 0.0189843,0.00764173 0.0340354,0.0221299 0.0452677,0.043248 0.011122,0.0212283 0.0167362,0.0445945 0.0167362,0.070315 0,0.0278583 -0.00662598,0.0534685 -0.0197677,0.0769449 -0.0131417,0.0234764 -0.0325748,0.0395394 -0.0584094,0.048189 -0.0257244,0.00864961 -0.0615551,0.0130276 -0.107386,0.0130276l-0.0780669 0 0 0.162539 0.0605433 0 0 0.0155 -0.305303 0 0 -0.0155 0.0525709 0 0 -0.410331 -0.0525709 0 0 -0.0155zm0.31485 0.199492l0 -0.115921c0,-0.0201063 -0.00134646,-0.0350472 -0.00426772,-0.0447087 -0.00280709,-0.00965748 -0.0070748,-0.0159488 -0.0125787,-0.0188701 -0.00561811,-0.0030315 -0.0152756,-0.00449213 -0.0288701,-0.00449213l-0.024374 0 0 0.232291 0.0237008 0c0.0310039,0 0.0463898,-0.016063 0.0463898,-0.0482992z"/>
  <path id="12345678910" class="fil1 str0" d="M-5.47565 -5.02498c0.0766102,0 0.136929,0.0211181 0.181185,0.0632402 0.0441457,0.042122 0.0662717,0.0996339 0.0662717,0.172421 0,0.0688543 -0.0216772,0.12502 -0.0651496,0.168378 -0.0434685,0.0432441 -0.10289,0.0649252 -0.178374,0.0649252 -0.0754843,0 -0.136028,-0.0213425 -0.181634,-0.0640276 -0.0456024,-0.042685 -0.0684055,-0.100197 -0.0684055,-0.172535 0,-0.0706535 0.0222402,-0.127039 0.0669488,-0.169161 0.0445906,-0.042122 0.10435,-0.0632402 0.179157,-0.0632402zm0.0371811 0.404827l0 -0.340913c0,-0.0287559 -0.0112323,-0.0431339 -0.0339213,-0.0431339 -0.0244882,0 -0.0368425,0.0150512 -0.0368425,0.0450433l0 0.341248c0,0.0149409 0.00280709,0.0256102 0.0084252,0.032126 0.00561417,0.00651575 0.0150512,0.00966142 0.0284173,0.00966142 0.022689,0 0.0339213,-0.0146024 0.0339213,-0.0440315z"/>
  <path id="1234567891011" class="fil1 str0" d="M-5.13182 -4.67946c0.0208898,0 0.0389764,0.00595276 0.0543661,0.0178622 0.0152756,0.0117913 0.0230276,0.0256102 0.0230276,0.0414488 0,0.0175197 -0.00707874,0.0318976 -0.0211181,0.0429055 -0.0140433,0.011122 -0.032126,0.016626 -0.0542559,0.016626 -0.0228031,0 -0.0418976,-0.00584252 -0.0572874,-0.0176339 -0.0153858,-0.011685 -0.0230236,-0.0261732 -0.0230236,-0.043248 0,-0.0159488 0.0076378,-0.0296535 0.0229134,-0.041 0.0151654,-0.0112323 0.0336969,-0.0169606 0.055378,-0.0169606z"/>
  <path id="123456789101112" class="fil1 str0" d="M-4.43775 -4.86996c-0.000562992,-0.0434724 -0.0175236,-0.0768346 -0.0506575,-0.100311 -0.0331378,-0.0234764 -0.0669488,-0.0352677 -0.101657,-0.0352677 -0.0165118,0 -0.0297677,0.00449213 -0.0399882,0.0134764 -0.0102205,0.00898819 -0.0152756,0.0206693 -0.0152756,0.034937 0,0.0108937 0.00325591,0.0199921 0.00965748,0.0269567 0.00651575,0.0070748 0.0189843,0.0156142 0.0374055,0.0257244 0.0651496,0.0361693 0.108173,0.0621142 0.129177,0.0779528 0.0208937,0.0158386 0.0354961,0.0325748 0.0435827,0.0503228 0.00808661,0.017748 0.0121299,0.0384173 0.0121299,0.0618937 0,0.0359409 -0.00954724,0.0659331 -0.0286417,0.0898583 -0.0190945,0.0239252 -0.0450433,0.0412244 -0.0778425,0.052122 -0.0327992,0.0108937 -0.0624528,0.0162874 -0.0889646,0.0162874 -0.0412244,0 -0.0798622,-0.0139291 -0.115807,-0.0417874l-0.059311 0.0463898 0 -0.185898 0.0168504 0 0 0.00190945c0,0.0305512 0.00572835,0.0562756 0.0172992,0.0771693 0.0114567,0.0210039 0.0294291,0.0397598 0.0539173,0.0562756 0.0244882,0.016622 0.0494213,0.0249331 0.0749213,0.0249331 0.0230276,0 0.0415591,-0.00482677 0.0557126,-0.014378 0.0141535,-0.00954724 0.0212323,-0.0220157 0.0212323,-0.0372913 0,-0.00898425 -0.00292126,-0.0174094 -0.00876378,-0.0251614 -0.00572835,-0.0078622 -0.0135906,-0.014937 -0.0234764,-0.0214528 -0.00988189,-0.00651575 -0.032685,-0.0189843 -0.0684055,-0.0376299 -0.0825591,-0.0434724 -0.123783,-0.0955906 -0.123783,-0.156358 0,-0.0439213 0.0161732,-0.0804252 0.0484134,-0.109744 0.0322362,-0.0293189 0.0724488,-0.0439213 0.120748,-0.0439213 0.0159528,0 0.033252,0.00190945 0.0516732,0.00595276 0.0184213,0.00393307 0.0402126,0.0138189 0.0654843,0.0295433l0.0605433 -0.0457165 0 0.163213 -0.0161732 0z"/>
  <path id="12345678910111213" class="fil1 str0" d="M-3.87466 -4.56949l-0.27026 0 0 -0.0155 0.0497638 0 -0.0417874 -0.120079 -0.153102 0c-0.00392913,0.0131417 -0.00583858,0.0257244 -0.00583858,0.0378543 0,0.023252 0.00583858,0.042685 0.0175236,0.0584094 0.0117913,0.0157244 0.0325748,0.0235906 0.0624528,0.023815l0 0.0155 -0.171862 0 0 -0.0155c0.0130315,-0.00438189 0.026063,-0.016063 0.039315,-0.0350472 0.0133661,-0.0189843 0.0242638,-0.0405512 0.0327992,-0.0645866l0.117496 -0.326197 0.15074 0 0.148386 0.425831 0.024374 0 0 0.0155zm-0.26689 -0.151079l-0.071437 -0.205335 -0.00135039 0 -0.0707638 0.205335 0.143551 0z"/>
  <path id="1234567891011121314" class="fil1 str0" d="M-3.41592 -4.87424l-0.0148268 0c-0.00415748,-0.0216772 -0.00999606,-0.0395394 -0.0172992,-0.0535787 -0.00729921,-0.0140394 -0.0178583,-0.0267323 -0.031563,-0.0380787 -0.0137047,-0.0112323 -0.0272953,-0.0189843 -0.0407756,-0.0231378 -0.0135906,-0.00415748 -0.0318976,-0.00629134 -0.0551496,-0.00629134l-0.0310039 0 0 0.200055c0.0220157,-0.000448819 0.039315,-0.00426772 0.0518937,-0.0114567 0.0125827,-0.00730315 0.0222441,-0.0181969 0.0289803,-0.0328031 0.00662992,-0.0146024 0.01,-0.0351575 0.01,-0.0616654l0.0155 0 0 0.219823 -0.0155 0c-0.000901575,-0.0347087 -0.0076378,-0.0597559 -0.0202205,-0.0752598 -0.0125787,-0.0153858 -0.0352717,-0.0231378 -0.0679567,-0.0231378l-0.00269685 0 0 0.194776 0.0586339 0 0 0.0155 -0.301823 0 0 -0.0155 0.051 0 0 -0.410331 -0.051 0 0 -0.0155 0.433807 0 0 0.136587z"/>
  <path id="123456789101112131415" class="fil1 str0" d="M-2.95392 -4.56949l-0.27026 0 0 -0.0155 0.0497638 0 -0.0417874 -0.120079 -0.153102 0c-0.00392913,0.0131417 -0.00583858,0.0257244 -0.00583858,0.0378543 0,0.023252 0.00583858,0.042685 0.0175236,0.0584094 0.0117913,0.0157244 0.0325748,0.0235906 0.0624528,0.023815l0 0.0155 -0.171862 0 0 -0.0155c0.0130315,-0.00438189 0.026063,-0.016063 0.039315,-0.0350472 0.0133661,-0.0189843 0.0242638,-0.0405512 0.0327992,-0.0645866l0.117496 -0.326197 0.15074 0 0.148386 0.425831 0.024374 0 0 0.0155zm-0.26689 -0.151079l-0.071437 -0.205335 -0.00135039 0 -0.0707638 0.205335 0.143551 0z"/>
  <path id="12345678910111213141516" class="fil1 str0" d="M-2.38993 -4.64352c-0.00988583,0.054815 -0.0424606,0.0822244 -0.0977244,0.0822244 -0.0239252,0 -0.0440315,-0.00269685 -0.0602087,-0.00808661 -0.0162874,-0.00527953 -0.0294291,-0.0138189 -0.0396496,-0.0252756 -0.0102244,-0.0115709 -0.0174134,-0.0258346 -0.0216811,-0.0427953 -0.00437795,-0.0169606 -0.00651575,-0.0550394 -0.00651575,-0.114012 0,-0.0169606 -0.00314173,-0.0283071 -0.00954724,-0.0342598 -0.0062874,-0.00595276 -0.0184213,-0.00887402 -0.0361693,-0.00887402 -0.0107835,0 -0.0188701,0.000224409 -0.024374,0.000673228l0 0.208929 0.0444803 0 0 0.0155 -0.288567 0 0 -0.0155 0.0518976 0 0 -0.410331 -0.0518976 0 0 -0.0155 0.366185 0c0.0579606,0 0.0953661,0.0104449 0.112441,0.0311142 0.0169606,0.0207795 0.0254961,0.0451535 0.0254961,0.0732362 0,0.0255 -0.00662598,0.0472913 -0.0197677,0.0655984 -0.0131417,0.0184213 -0.0319016,0.0314528 -0.0562756,0.0394252 0.0305512,0.0108976 0.0500984,0.023252 0.0589724,0.0368465 0.00875984,0.0135906 0.0131417,0.0323504 0.0131417,0.0562756l-0.00202362 0.0673937c0,0.0125827 0.00280709,0.0187598 0.00820079,0.0187598 0.00292126,0 0.00617717,-0.00247244 0.00977165,-0.00741339 0.00359449,-0.00494094 0.00617717,-0.0110079 0.00775197,-0.0181969l0.016063 0.00426772zm-0.225102 -0.212972l0 -0.0931181c0,-0.0186457 -0.00314567,-0.0308898 -0.00955118,-0.0368425 -0.0062874,-0.00595276 -0.0194291,-0.00887402 -0.0390866,-0.00887402l-0.0221299 0 0 0.185902 0.0115709 0c0.0230276,0 0.0386378,-0.00348425 0.0468386,-0.0105591 0.00831496,-0.00696457 0.0123583,-0.0190945 0.0123583,-0.0365079z"/>
  <polygon id="1234567891011121314151617" class="fil1 str0" points="-2.05025,-4.56949 -2.3468,-4.56949 -2.3468,-4.58499 -2.2958,-4.58499 -2.2958,-4.99532 -2.3468,-4.99532 -2.3468,-5.01082 -2.05025,-5.01082 -2.05025,-4.99532 -2.10361,-4.99532 -2.10361,-4.58499 -2.05025,-4.58499 "/>
  <path class="fil2" d="M0.111 5.55779l0 -0.119303 0.0146378 0 0 0.0428031c0.00683465,-0.00791732 0.0154724,-0.0118898 0.0258898,-0.0118898 0.00638976,0 0.0119449,0.00127953 0.0166654,0.00380709 0.00472441,0.0025 0.00811024,0.006 0.0101417,0.0104449 0.00202756,0.00444488 0.00305512,0.0109173 0.00305512,0.0193622l0 0.0547756 -0.0146693 0 0 -0.0547756c0,-0.00730709 -0.00158268,-0.0126417 -0.00474803,-0.0159724 -0.00316929,-0.00333465 -0.00766535,-0.00502756 -0.0134724,-0.00502756 -0.00433465,0 -0.00841732,0.0011378 -0.012252,0.00338583 -0.00383071,0.00225197 -0.00655512,0.00530709 -0.00816535,0.00916929 -0.0016378,0.00383071 -0.00244488,0.00916535 -0.00244488,0.0159449l0 0.0472756 -0.0146378 0z"/>
  <path id="1" class="fil2" d="M0.235665 5.54468l0.00211024 0.0129449c-0.00411024,0.000858268 -0.00780709,0.00130315 -0.0110551,0.00130315 -0.00533465,0 -0.00944488,-0.000830709 -0.0123898,-0.00252756 -0.00291732,-0.00166535 -0.00497244,-0.00388976 -0.00616535,-0.0066378 -0.00119291,-0.00272047 -0.00180709,-0.0085 -0.00180709,-0.0172795l0 -0.0497205 -0.010748 0 0 -0.0113898 0.010748 0 0 -0.0214134 0.0145827 -0.00877953 0 0.0301929 0.0147244 0 0 0.0113898 -0.0147244 0 0 0.0505276c0,0.00419291 0.000251969,0.0068622 0.000751969,0.00805512 0.000527559,0.00119685 0.0013622,0.0021378 0.00252756,0.0028622 0.00116535,0.000692913 0.00283465,0.00105512 0.005,0.00105512 0.0016378,0 0.00377953,-0.000192913 0.00644488,-0.000582677z"/>
  <path id="12" class="fil2" d="M0.281972 5.54468l0.00211024 0.0129449c-0.00411024,0.000858268 -0.00780709,0.00130315 -0.0110551,0.00130315 -0.00533465,0 -0.00944488,-0.000830709 -0.0123898,-0.00252756 -0.00291732,-0.00166535 -0.00497244,-0.00388976 -0.00616535,-0.0066378 -0.00119291,-0.00272047 -0.00180709,-0.0085 -0.00180709,-0.0172795l0 -0.0497205 -0.010748 0 0 -0.0113898 0.010748 0 0 -0.0214134 0.0145827 -0.00877953 0 0.0301929 0.0147244 0 0 0.0113898 -0.0147244 0 0 0.0505276c0,0.00419291 0.000251969,0.0068622 0.000751969,0.00805512 0.000527559,0.00119685 0.0013622,0.0021378 0.00252756,0.0028622 0.00116535,0.000692913 0.00283465,0.00105512 0.005,0.00105512 0.0016378,0 0.00377953,-0.000192913 0.00644488,-0.000582677z"/>
  <path id="123" class="fil2" d="M0.296307 5.5909l0 -0.119528 0.0133346 0 0 0.0112244c0.0031378,-0.00438976 0.00669291,-0.00769685 0.0106654,-0.00988976 0.00394488,-0.00219291 0.00874803,-0.00330709 0.0143898,-0.00330709 0.00738583,0 0.0138858,0.00191732 0.0195276,0.00569685 0.00566535,0.00380315 0.00991732,0.00916535 0.0127756,0.0160827 0.00288976,0.00691732 0.00433465,0.0145 0.00433465,0.022748 0,0.00883465 -0.00158268,0.0168071 -0.00477953,0.0238898 -0.00316535,0.00708268 -0.00777559,0.0125 -0.0138307,0.0162795 -0.00605512,0.00374803 -0.0124173,0.0056378 -0.0190827,0.0056378 -0.00488976,0 -0.00925197,-0.00102756 -0.0131417,-0.00308268 -0.00388583,-0.00205512 -0.00705512,-0.00466929 -0.00955512,-0.00780709l0 0.0420551 -0.0146378 0zm0.013248 -0.0758307c0,0.0111102 0.00225197,0.0193307 0.00675197,0.0246654 0.0045,0.00530709 0.00997244,0.00797244 0.0163622,0.00797244 0.0065,0 0.0120827,-0.00275197 0.0167205,-0.00827953 0.0046378,-0.0055 0.00697244,-0.0140276 0.00697244,-0.0255827 0,-0.0110276 -0.00227953,-0.019248 -0.00680709,-0.024748 -0.00452756,-0.00547244 -0.00994094,-0.00822441 -0.0162205,-0.00822441 -0.00625197,0 -0.0117795,0.00291732 -0.0165827,0.00875197 -0.00480709,0.00583071 -0.00719685,0.0143307 -0.00719685,0.0254449z"/>
  <path id="1234" class="fil2" d="M0.393055 5.48804l0 -0.0166693 0.0166929 0 0 0.0166693 -0.0166929 0zm0 0.069748l0 -0.0166929 0.0166929 0 0 0.0166929 -0.0166929 0z"/>
  <polygon id="12345" class="fil2" points="0.424307,5.55981 0.45889,5.43646 0.470614,5.43646 0.436114,5.55981 "/>
  <polygon id="123456" class="fil2" points="0.470614,5.55981 0.505197,5.43646 0.516921,5.43646 0.482421,5.55981 "/>
  <polygon id="1234567" class="fil2" points="0.527587,5.55779 0.527587,5.43848 0.542228,5.43848 0.542228,5.55779 "/>
  <path id="12345678" class="fil2" d="M0.559476 5.51457c0,-0.016 0.00444488,-0.0278622 0.0133622,-0.0355551 0.00741732,-0.00638976 0.0164724,-0.00961417 0.0271654,-0.00961417 0.0118898,0 0.0216102,0.00388976 0.0291378,0.0116969 0.00755512,0.00777559 0.0113071,0.0185276 0.0113071,0.032248 0,0.0111378 -0.00166929,0.0198898 -0.005,0.026252 -0.00333465,0.00638583 -0.00819685,0.0113307 -0.0145551,0.0148583 -0.00638976,0.00352756 -0.0133346,0.00527953 -0.0208898,0.00527953 -0.0120827,0 -0.0218622,-0.0038622 -0.0293346,-0.0116378 -0.00747244,-0.00775197 -0.0111929,-0.0189173 -0.0111929,-0.0335276zm0.0150551 0c0,0.0110827 0.00241732,0.0193583 0.00725197,0.0248583 0.00483071,0.00552756 0.0109134,0.00827953 0.0182205,0.00827953 0.00727953,0 0.0133346,-0.00277953 0.0181654,-0.00830709 0.00480709,-0.00552756 0.00722441,-0.0139724 0.00722441,-0.0253031 0,-0.0106969 -0.00241732,-0.0188071 -0.00727953,-0.0243071 -0.0048622,-0.0055 -0.0108898,-0.00824803 -0.0181102,-0.00824803 -0.00730709,0 -0.0133898,0.00274803 -0.0182205,0.00822047 -0.00483465,0.00547244 -0.00725197,0.013752 -0.00725197,0.0248071z"/>
  <path id="123456789" class="fil2" d="M0.714031 5.52612l0.0143858 0.00188976c-0.00155512,0.00991339 -0.00558268,0.0176929 -0.0120827,0.0233031 -0.00647244,0.00561024 -0.0144449,0.00841732 -0.0238858,0.00841732 -0.0118071,0 -0.0213346,-0.0038622 -0.0285,-0.0115827 -0.00719685,-0.00772441 -0.0108071,-0.0188071 -0.0108071,-0.033252 0,-0.00933071 0.00155512,-0.0175 0.0046378,-0.0245 0.00311024,-0.007 0.00780709,-0.012248 0.0141417,-0.015748 0.00630315,-0.0035 0.0131929,-0.00525197 0.0206102,-0.00525197 0.00938583,0 0.0170827,0.00238976 0.0230276,0.00714173 0.00597244,0.00474803 0.00980315,0.0114724 0.0115,0.0202205l-0.014252 0.00219291c-0.0013622,-0.00580315 -0.00374803,-0.0101654 -0.00719291,-0.0131102 -0.00344488,-0.00291732 -0.00761024,-0.00438976 -0.0125,-0.00438976 -0.00738976,0 -0.0133898,0.00264173 -0.018,0.00794488 -0.00461024,0.00527953 -0.00691732,0.0136417 -0.00691732,0.0250827 0,0.0116142 0.00222441,0.0200591 0.00669291,0.0253346 0.00444488,0.00525197 0.010252,0.00788976 0.0174173,0.00788976 0.00575197,0 0.0105276,-0.00177953 0.0143898,-0.00530709 0.0038622,-0.00352756 0.00630709,-0.00894488 0.00733465,-0.0162756z"/>
  <path id="12345678910" class="fil2" d="M0.797366 5.54712c-0.00544488,0.00461024 -0.0106693,0.00785827 -0.0156693,0.00977559 -0.00502756,0.00188976 -0.0104134,0.00283465 -0.0161654,0.00283465 -0.0095,0 -0.0167756,-0.00230709 -0.0218898,-0.00694488 -0.00508268,-0.0046378 -0.0076378,-0.0105827 -0.0076378,-0.0177795 0,-0.00424803 0.000944882,-0.00811024 0.00288976,-0.0116102 0.00191732,-0.0035 0.00444488,-0.00630315 0.00755512,-0.00841732 0.0031378,-0.00211024 0.0066378,-0.00372047 0.0105551,-0.00480315 0.0028622,-0.000751969 0.00719291,-0.0015 0.013,-0.00219685 0.0118346,-0.00141339 0.0205551,-0.00308268 0.0261378,-0.00505512 5.51181e-005,-0.002 8.26772e-005,-0.00327559 8.26772e-005,-0.00380315 0,-0.00597244 -0.00138583,-0.0101969 -0.00416535,-0.0126102 -0.00372047,-0.00333465 -0.00930709,-0.00497244 -0.0166654,-0.00497244 -0.00688976,0 -0.0119724,0.00119291 -0.0152795,0.00361024 -0.00327559,0.00241732 -0.00569291,0.00669291 -0.00727559,0.0128346l-0.0143071 -0.00197244c0.00130709,-0.00611417 0.00344488,-0.0110866 0.00641732,-0.0148346 0.00297244,-0.00377953 0.00730709,-0.00669291 0.0129449,-0.00872047 0.0056378,-0.0020315 0.0121654,-0.00305906 0.0196102,-0.00305906 0.00738976,0 0.0133622,0.000889764 0.0179724,0.00261417 0.00461024,0.00174803 0.008,0.00391339 0.0101929,0.00655512 0.00216929,0.0026378 0.00366929,0.00594488 0.00455512,0.00997244 0.000472441,0.0025 0.000724409,0.007 0.000724409,0.0135l0 0.0195276c0,0.0136378 0.00030315,0.022248 0.000944882,0.0258307 0.000610236,0.00361024 0.00185827,0.00708268 0.00369291,0.0103898l-0.0153071 0c-0.0015,-0.00302756 -0.0025,-0.00658268 -0.00291339,-0.0106654zm-0.00122441 -0.0327244c-0.00533071,0.00219685 -0.0133031,0.00402756 -0.0239173,0.00555512 -0.00602756,0.000862205 -0.0103031,0.00183465 -0.0127756,0.00291732 -0.0025,0.00108268 -0.00444488,0.00266929 -0.00577953,0.00477953 -0.00135827,0.00208268 -0.00205512,0.00438976 -0.00205512,0.00694488 0,0.00391339 0.0015,0.00716535 0.00444488,0.00977559 0.00294488,0.00258268 0.00727953,0.00388976 0.0129724,0.00388976 0.0056378,0 0.0106654,-0.00122047 0.0150551,-0.00369291 0.00438976,-0.00247244 0.0076378,-0.0058622 0.00969291,-0.0101417 0.00158661,-0.00330315 0.0023622,-0.00819291 0.0023622,-0.0146378l0 -0.00538976z"/>
  <polygon id="1234567891011" class="fil2" points="0.833335,5.55779 0.833335,5.43848 0.847976,5.43848 0.847976,5.55779 "/>
  <path id="123456789101112" class="fil2" d="M0.870697 5.55779l0 -0.119303 0.0146378 0 0 0.0428031c0.00683465,-0.00791732 0.0154724,-0.0118898 0.0258898,-0.0118898 0.00638976,0 0.0119449,0.00127953 0.0166654,0.00380709 0.00472441,0.0025 0.00811024,0.006 0.0101417,0.0104449 0.00202756,0.00444488 0.00305512,0.0109173 0.00305512,0.0193622l0 0.0547756 -0.0146693 0 0 -0.0547756c0,-0.00730709 -0.00158268,-0.0126417 -0.00474803,-0.0159724 -0.00316929,-0.00333465 -0.00766535,-0.00502756 -0.0134724,-0.00502756 -0.00433465,0 -0.00841732,0.0011378 -0.012252,0.00338583 -0.00383071,0.00225197 -0.00655512,0.00530709 -0.00816535,0.00916929 -0.0016378,0.00383071 -0.00244488,0.00916535 -0.00244488,0.0159449l0 0.0472756 -0.0146378 0z"/>
  <path id="12345678910111213" class="fil2" d="M0.957917 5.51457c0,-0.016 0.00444488,-0.0278622 0.0133622,-0.0355551 0.00741732,-0.00638976 0.0164724,-0.00961417 0.0271654,-0.00961417 0.0118898,0 0.0216102,0.00388976 0.0291378,0.0116969 0.00755512,0.00777559 0.0113071,0.0185276 0.0113071,0.032248 0,0.0111378 -0.00166929,0.0198898 -0.005,0.026252 -0.00333465,0.00638583 -0.00819685,0.0113307 -0.0145551,0.0148583 -0.00638976,0.00352756 -0.0133346,0.00527953 -0.0208898,0.00527953 -0.0120827,0 -0.0218622,-0.0038622 -0.0293346,-0.0116378 -0.00747244,-0.00775197 -0.0111929,-0.0189173 -0.0111929,-0.0335276zm0.0150551 0c0,0.0110827 0.00241732,0.0193583 0.00725197,0.0248583 0.00483071,0.00552756 0.0109134,0.00827953 0.0182205,0.00827953 0.00727953,0 0.0133346,-0.00277953 0.0181654,-0.00830709 0.00480709,-0.00552756 0.00722441,-0.0139724 0.00722441,-0.0253031 0,-0.0106969 -0.00241732,-0.0188071 -0.00727953,-0.0243071 -0.0048622,-0.0055 -0.0108898,-0.00824803 -0.0181102,-0.00824803 -0.00730709,0 -0.0133898,0.00274803 -0.0182205,0.00822047 -0.00483465,0.00547244 -0.00725197,0.013752 -0.00725197,0.0248071z"/>
  <path id="1234567891011121314" class="fil2" d="M1.05022 5.53198l0.0144724 -0.00227559c0.000807087,0.00580315 0.00308268,0.010248 0.00680709,0.0133622 0.00369291,0.00308268 0.00888976,0.0046378 0.0155827,0.0046378 0.00672047,0 0.0117205,-0.00138976 0.0149724,-0.00411024 0.00324803,-0.00275197 0.00488976,-0.00597244 0.00488976,-0.00964173 0,-0.00333071 -0.00144488,-0.00591339 -0.00433465,-0.00783071 -0.002,-0.00130709 -0.007,-0.00294488 -0.0149724,-0.00494488 -0.0107205,-0.00272441 -0.0181929,-0.00505512 -0.0223346,-0.00705512 -0.0041378,-0.00197244 -0.00730315,-0.00472441 -0.00944094,-0.00822441 -0.00214173,-0.0035 -0.00322441,-0.00735827 -0.00322441,-0.0115827 0,-0.0038622 0.000889764,-0.00741732 0.00266535,-0.0106929 0.00175197,-0.00330709 0.00416929,-0.00602756 0.00719685,-0.00819685 0.00227559,-0.00166535 0.00538976,-0.00311024 0.00930315,-0.00427559 0.00394488,-0.00116535 0.00816929,-0.00175197 0.0126693,-0.00175197 0.00677559,0 0.0127205,0.001 0.0178583,0.00294488 0.00514173,0.00194488 0.00891732,0.00458268 0.0113622,0.00791732 0.00244488,0.0033622 0.00411024,0.00780709 0.00502756,0.0133898l-0.0143031 0.00197244c-0.000669291,-0.00444488 -0.00255906,-0.00791732 -0.00566929,-0.0104173 -0.00311024,-0.0025 -0.00752756,-0.00375197 -0.0132205,-0.00375197 -0.00672441,0 -0.0115276,0.00111417 -0.0143898,0.00333465 -0.00288976,0.00222441 -0.00433465,0.00483465 -0.00433465,0.00780709 0,0.00191732 0.000614173,0.00361024 0.00180709,0.0051378 0.00119291,0.00158268 0.00305512,0.0028622 0.00561024,0.00391732 0.00147244,0.000527559 0.00577953,0.00177559 0.0129449,0.00372047 0.0103622,0.00277953 0.0175827,0.00502756 0.0216654,0.00680709 0.00411417,0.00174803 0.00733465,0.00433465 0.00966929,0.00769291 0.00233071,0.0033622 0.0035,0.00752756 0.0035,0.0125276 0,0.00488976 -0.00144488,0.00947244 -0.00427953,0.0138071 -0.0028622,0.00430315 -0.00697244,0.0076378 -0.0123346,0.01 -0.00535827,0.0023622 -0.0114409,0.00352756 -0.0182205,0.00352756 -0.011248,0 -0.0198031,-0.00233465 -0.0256929,-0.007 -0.00588976,-0.00466535 -0.00964173,-0.0115827 -0.011252,-0.020752z"/>
  <path id="123456789101112131415" class="fil2" d="M1.17139 5.54468l0.00211024 0.0129449c-0.00411024,0.000858268 -0.00780709,0.00130315 -0.0110551,0.00130315 -0.00533465,0 -0.00944488,-0.000830709 -0.0123898,-0.00252756 -0.00291732,-0.00166535 -0.00497244,-0.00388976 -0.00616535,-0.0066378 -0.00119291,-0.00272047 -0.00180709,-0.0085 -0.00180709,-0.0172795l0 -0.0497205 -0.010748 0 0 -0.0113898 0.010748 0 0 -0.0214134 0.0145827 -0.00877953 0 0.0301929 0.0147244 0 0 0.0113898 -0.0147244 0 0 0.0505276c0,0.00419291 0.000251969,0.0068622 0.000751969,0.00805512 0.000527559,0.00119685 0.0013622,0.0021378 0.00252756,0.0028622 0.00116535,0.000692913 0.00283465,0.00105512 0.005,0.00105512 0.0016378,0 0.00377953,-0.000192913 0.00644488,-0.000582677z"/>
  <path id="12345678910111213141516" class="fil2" d="M1.18978 5.48804l0 -0.0166693 0.0166929 0 0 0.0166693 -0.0166929 0zm0 0.069748l0 -0.0166929 0.0166929 0 0 0.0166929 -0.0166929 0z"/>
  <path id="1234567891011121314151617" class="fil2" d="M1.23014 5.5302l0.0140827 -0.00130709c0.00119685,0.00661024 0.00347244,0.0114173 0.00683465,0.0144173 0.0033622,0.00297244 0.00766535,0.00447244 0.0129449,0.00447244 0.0045,0 0.00844488,-0.00102756 0.0118346,-0.00311024 0.00338583,-0.00205512 0.00616535,-0.00480709 0.00833071,-0.00825197 0.00219685,-0.00344488 0.004,-0.00811024 0.00547244,-0.0139449 0.00144488,-0.00585827 0.00219291,-0.0118307 0.00219291,-0.0179134 0,-0.000641732 -2.75591e-005,-0.00164173 -8.26772e-005,-0.00291732 -0.00294488,0.0046378 -0.00694488,0.00844488 -0.012,0.0113307 -0.00508268,0.00291732 -0.0105827,0.0043622 -0.0164724,0.0043622 -0.00988583,0 -0.018248,-0.00358268 -0.0250827,-0.010748 -0.00683071,-0.00716929 -0.010248,-0.0165827 -0.010248,-0.0283071 0,-0.0121102 0.00355512,-0.0218307 0.0106929,-0.0292205 0.0071378,-0.00738976 0.0160827,-0.0110827 0.0268346,-0.0110827 0.00774803,0 0.0148307,0.00211024 0.0212756,0.00627559 0.00641732,0.00416535 0.0113071,0.0101378 0.0146417,0.0178622 0.00333071,0.00772047 0.005,0.0189173 0.005,0.0335827 0,0.0152205 -0.00164173,0.0273622 -0.00494488,0.0364173 -0.00333465,0.00902756 -0.00825197,0.0158858 -0.0147795,0.0206102 -0.00655512,0.00472047 -0.0141929,0.00708268 -0.023,0.00708268 -0.00933071,0 -0.0169449,-0.00258268 -0.0228583,-0.00777559 -0.00591732,-0.00516929 -0.00947244,-0.0124449 -0.0106693,-0.0218346zm0.0599724 -0.0526654c0,-0.00838976 -0.00222047,-0.0150827 -0.00669291,-0.02 -0.0045,-0.00494488 -0.0098622,-0.00741732 -0.0161693,-0.00741732 -0.0065,0 -0.0121654,0.00266535 -0.017,0.00797244 -0.00483071,0.00533071 -0.00724803,0.0122205 -0.00724803,0.0206654 0,0.00761024 0.00230709,0.0137795 0.00688976,0.0185276 0.00458268,0.00475197 0.0102205,0.00711024 0.0169449,0.00711024 0.00680315,0 0.0123583,-0.00235827 0.0167205,-0.00711024 0.00438976,-0.00474803 0.00655512,-0.0113346 0.00655512,-0.019748z"/>
  <path id="123456789101112131415161718" class="fil2" d="M1.32064 5.49895c0,-0.0141102 0.00144488,-0.0254685 0.0043622,-0.0340551 0.00288583,-0.00861024 0.00722047,-0.015248 0.0129409,-0.0199134 0.00572441,-0.00466929 0.0129173,-0.007 0.0215866,-0.007 0.00641339,0 0.0120276,0.00130315 0.0168583,0.00388583 0.00483465,0.00255906 0.00880709,0.00627953 0.0119724,0.0111417 0.0031378,0.00485827 0.00561024,0.0107756 0.00738976,0.017748 0.00180315,0.00697244 0.00269291,0.0163622 0.00269291,0.0281929 0,0.014 -0.00144488,0.0252795 -0.00430315,0.0338898 -0.00288976,0.00861024 -0.00719685,0.015252 -0.0129173,0.0199449 -0.00572441,0.00469291 -0.0129449,0.00702756 -0.0216929,0.00702756 -0.0115,0 -0.0205276,-0.00411024 -0.0270866,-0.0123622 -0.00785827,-0.00991339 -0.0118031,-0.0261102 -0.0118031,-0.0485zm0.0150551 0c0,0.0195866 0.00230709,0.0326142 0.00688976,0.0391142 0.00458268,0.00647244 0.0102205,0.00972047 0.0169449,0.00972047 0.00674803,0 0.0123858,-0.00327953 0.0169685,-0.00977953 0.00458661,-0.0065 0.00688976,-0.0195276 0.00688976,-0.0390551 0,-0.0196378 -0.00230315,-0.0326929 -0.00688976,-0.0391378 -0.00458268,-0.00647244 -0.0102756,-0.00969291 -0.0171102,-0.00969291 -0.00674803,0 -0.0121102,0.0028622 -0.0161378,0.00855512 -0.00502756,0.00724803 -0.00755512,0.0206929 -0.00755512,0.0402756z"/>
  <polygon id="12345678910111213141516171819" class="fil2" points="1.40642,5.55981 1.441,5.43646 1.45272,5.43646 1.41822,5.55981 "/>
  <path id="1234567891011121314151617181920" class="fil2" d="M1.45786 5.53198l0.0144724 -0.00227559c0.000807087,0.00580315 0.00308268,0.010248 0.00680709,0.0133622 0.00369291,0.00308268 0.00888976,0.0046378 0.0155827,0.0046378 0.00672047,0 0.0117205,-0.00138976 0.0149724,-0.00411024 0.00324803,-0.00275197 0.00488976,-0.00597244 0.00488976,-0.00964173 0,-0.00333071 -0.00144488,-0.00591339 -0.00433465,-0.00783071 -0.002,-0.00130709 -0.007,-0.00294488 -0.0149724,-0.00494488 -0.0107205,-0.00272441 -0.0181929,-0.00505512 -0.0223346,-0.00705512 -0.0041378,-0.00197244 -0.00730315,-0.00472441 -0.00944094,-0.00822441 -0.00214173,-0.0035 -0.00322441,-0.00735827 -0.00322441,-0.0115827 0,-0.0038622 0.000889764,-0.00741732 0.00266535,-0.0106929 0.00175197,-0.00330709 0.00416929,-0.00602756 0.00719685,-0.00819685 0.00227559,-0.00166535 0.00538976,-0.00311024 0.00930315,-0.00427559 0.00394488,-0.00116535 0.00816929,-0.00175197 0.0126693,-0.00175197 0.00677559,0 0.0127205,0.001 0.0178583,0.00294488 0.00514173,0.00194488 0.00891732,0.00458268 0.0113622,0.00791732 0.00244488,0.0033622 0.00411024,0.00780709 0.00502756,0.0133898l-0.0143031 0.00197244c-0.000669291,-0.00444488 -0.00255906,-0.00791732 -0.00566929,-0.0104173 -0.00311024,-0.0025 -0.00752756,-0.00375197 -0.0132205,-0.00375197 -0.00672441,0 -0.0115276,0.00111417 -0.0143898,0.00333465 -0.00288976,0.00222441 -0.00433465,0.00483465 -0.00433465,0.00780709 0,0.00191732 0.000614173,0.00361024 0.00180709,0.0051378 0.00119291,0.00158268 0.00305512,0.0028622 0.00561024,0.00391732 0.00147244,0.000527559 0.00577953,0.00177559 0.0129449,0.00372047 0.0103622,0.00277953 0.0175827,0.00502756 0.0216654,0.00680709 0.00411417,0.00174803 0.00733465,0.00433465 0.00966929,0.00769291 0.00233071,0.0033622 0.0035,0.00752756 0.0035,0.0125276 0,0.00488976 -0.00144488,0.00947244 -0.00427953,0.0138071 -0.0028622,0.00430315 -0.00697244,0.0076378 -0.0123346,0.01 -0.00535827,0.0023622 -0.0114409,0.00352756 -0.0182205,0.00352756 -0.011248,0 -0.0198031,-0.00233465 -0.0256929,-0.007 -0.00588976,-0.00466535 -0.00964173,-0.0115827 -0.011252,-0.020752z"/>
  <path id="123456789101112131415161718192021" class="fil2" d="M1.54711 5.45534l0 -0.0168583 0.0146654 0 0 0.0168583 -0.0146654 0zm0 0.102445l0 -0.0864173 0.0146654 0 0 0.0864173 -0.0146654 0z"/>
  <path id="12345678910111213141516171819202122" class="fil2" d="M1.58409 5.5909l0 -0.119528 0.0133346 0 0 0.0112244c0.0031378,-0.00438976 0.00669291,-0.00769685 0.0106654,-0.00988976 0.00394488,-0.00219291 0.00874803,-0.00330709 0.0143898,-0.00330709 0.00738583,0 0.0138858,0.00191732 0.0195276,0.00569685 0.00566535,0.00380315 0.00991732,0.00916535 0.0127756,0.0160827 0.00288976,0.00691732 0.00433465,0.0145 0.00433465,0.022748 0,0.00883465 -0.00158268,0.0168071 -0.00477953,0.0238898 -0.00316535,0.00708268 -0.00777559,0.0125 -0.0138307,0.0162795 -0.00605512,0.00374803 -0.0124173,0.0056378 -0.0190827,0.0056378 -0.00488976,0 -0.00925197,-0.00102756 -0.0131417,-0.00308268 -0.00388583,-0.00205512 -0.00705512,-0.00466929 -0.00955512,-0.00780709l0 0.0420551 -0.0146378 0zm0.013248 -0.0758307c0,0.0111102 0.00225197,0.0193307 0.00675197,0.0246654 0.0045,0.00530709 0.00997244,0.00797244 0.0163622,0.00797244 0.0065,0 0.0120827,-0.00275197 0.0167205,-0.00827953 0.0046378,-0.0055 0.00697244,-0.0140276 0.00697244,-0.0255827 0,-0.0110276 -0.00227953,-0.019248 -0.00680709,-0.024748 -0.00452756,-0.00547244 -0.00994094,-0.00822441 -0.0162205,-0.00822441 -0.00625197,0 -0.0117795,0.00291732 -0.0165827,0.00875197 -0.00480709,0.00583071 -0.00719685,0.0143307 -0.00719685,0.0254449z"/>
  <path id="1234567891011121314151617181920212223" class="fil2" d="M1.69028 5.55779l-0.0135827 0 0 -0.119303 0.0146378 0 0 0.0425551c0.00619291,-0.00775197 0.0140827,-0.0116417 0.0236654,-0.0116417 0.00533465,0 0.0103622,0.00108661 0.0151142,0.00322441 0.00474803,0.0021378 0.0086378,0.00516535 0.0117205,0.00902756 0.00305512,0.00388976 0.00547244,0.00855512 0.00719291,0.0140551 0.00175197,0.00547244 0.00261417,0.0113346 0.00261417,0.0175551 0,0.0148346 -0.00366929,0.0262795 -0.011,0.0343622 -0.00730709,0.00808268 -0.0161142,0.0121102 -0.0263622,0.0121102 -0.0101929,0 -0.0181929,-0.00425197 -0.024,-0.0127795l0 0.0108346zm-0.000165354 -0.0438622c0,0.0103622 0.00141339,0.0178346 0.00422047,0.0224449 0.00461024,0.00755512 0.0108622,0.0113346 0.0187205,0.0113346 0.00641732,0 0.0119449,-0.00277953 0.0166142,-0.0083622 0.00466535,-0.00555512 0.007,-0.0138307 0.007,-0.0248622 0,-0.0112756 -0.00225197,-0.0196102 -0.00672441,-0.0249685 -0.00447244,-0.0053622 -0.00988976,-0.00805906 -0.0162205,-0.00805906 -0.00641732,0 -0.0119449,0.00277953 -0.0166102,0.00833465 -0.00466929,0.00555512 -0.007,0.0136102 -0.007,0.0241378z"/>
  <path id="123456789101112131415161718192021222324" class="fil2" d="M1.82611 5.55779l0 -0.0126929c-0.00674803,0.00977559 -0.0158898,0.0146378 -0.0274449,0.0146378 -0.00508268,0 -0.00985827,-0.000972441 -0.0142756,-0.00291732 -0.00441732,-0.00194488 -0.00769685,-0.00441732 -0.00983465,-0.0073622 -0.00216535,-0.00297244 -0.00366535,-0.00658268 -0.00452756,-0.0108583 -0.000582677,-0.00288976 -0.000889764,-0.00744488 -0.000889764,-0.0136969l0 -0.0535276 0.0146417 0 0 0.0479173c0,0.00766535 0.00030315,0.0128071 0.000885827,0.0154724 0.000944882,0.0038622 0.00288976,0.0068622 0.0058622,0.00908268 0.003,0.00219685 0.00669291,0.00327953 0.0110827,0.00327953 0.00438976,0 0.0085,-0.00111417 0.0123622,-0.0033622 0.0038622,-0.00225197 0.00658268,-0.00533465 0.00816535,-0.00919291 0.00161024,-0.00388976 0.00241732,-0.00952756 0.00241732,-0.0168898l0 -0.0463071 0.0146378 0 0 0.0864173 -0.0130827 0z"/>
  <path id="12345678910111213141516171819202122232425" class="fil2" d="M1.8563 5.53198l0.0144724 -0.00227559c0.000807087,0.00580315 0.00308268,0.010248 0.00680709,0.0133622 0.00369291,0.00308268 0.00888976,0.0046378 0.0155827,0.0046378 0.00672047,0 0.0117205,-0.00138976 0.0149724,-0.00411024 0.00324803,-0.00275197 0.00488976,-0.00597244 0.00488976,-0.00964173 0,-0.00333071 -0.00144488,-0.00591339 -0.00433465,-0.00783071 -0.002,-0.00130709 -0.007,-0.00294488 -0.0149724,-0.00494488 -0.0107205,-0.00272441 -0.0181929,-0.00505512 -0.0223346,-0.00705512 -0.0041378,-0.00197244 -0.00730315,-0.00472441 -0.00944094,-0.00822441 -0.00214173,-0.0035 -0.00322441,-0.00735827 -0.00322441,-0.0115827 0,-0.0038622 0.000889764,-0.00741732 0.00266535,-0.0106929 0.00175197,-0.00330709 0.00416929,-0.00602756 0.00719685,-0.00819685 0.00227559,-0.00166535 0.00538976,-0.00311024 0.00930315,-0.00427559 0.00394488,-0.00116535 0.00816929,-0.00175197 0.0126693,-0.00175197 0.00677559,0 0.0127205,0.001 0.0178583,0.00294488 0.00514173,0.00194488 0.00891732,0.00458268 0.0113622,0.00791732 0.00244488,0.0033622 0.00411024,0.00780709 0.00502756,0.0133898l-0.0143031 0.00197244c-0.000669291,-0.00444488 -0.00255906,-0.00791732 -0.00566929,-0.0104173 -0.00311024,-0.0025 -0.00752756,-0.00375197 -0.0132205,-0.00375197 -0.00672441,0 -0.0115276,0.00111417 -0.0143898,0.00333465 -0.00288976,0.00222441 -0.00433465,0.00483465 -0.00433465,0.00780709 0,0.00191732 0.000614173,0.00361024 0.00180709,0.0051378 0.00119291,0.00158268 0.00305512,0.0028622 0.00561024,0.00391732 0.00147244,0.000527559 0.00577953,0.00177559 0.0129449,0.00372047 0.0103622,0.00277953 0.0175827,0.00502756 0.0216654,0.00680709 0.00411417,0.00174803 0.00733465,0.00433465 0.00966929,0.00769291 0.00233071,0.0033622 0.0035,0.00752756 0.0035,0.0125276 0,0.00488976 -0.00144488,0.00947244 -0.00427953,0.0138071 -0.0028622,0.00430315 -0.00697244,0.0076378 -0.0123346,0.01 -0.00535827,0.0023622 -0.0114409,0.00352756 -0.0182205,0.00352756 -0.011248,0 -0.0198031,-0.00233465 -0.0256929,-0.007 -0.00588976,-0.00466535 -0.00964173,-0.0115827 -0.011252,-0.020752z"/>
  <polygon id="1234567891011121314151617181920212223242526" class="fil2" points="1.9345,5.55981 1.96908,5.43646 1.98081,5.43646 1.94631,5.55981 "/>
  <path id="123456789101112131415161718192021222324252627" class="fil2" d="M2.0482 5.54712c-0.00544488,0.00461024 -0.0106693,0.00785827 -0.0156693,0.00977559 -0.00502756,0.00188976 -0.0104134,0.00283465 -0.0161654,0.00283465 -0.0095,0 -0.0167756,-0.00230709 -0.0218898,-0.00694488 -0.00508268,-0.0046378 -0.0076378,-0.0105827 -0.0076378,-0.0177795 0,-0.00424803 0.000944882,-0.00811024 0.00288976,-0.0116102 0.00191732,-0.0035 0.00444488,-0.00630315 0.00755512,-0.00841732 0.0031378,-0.00211024 0.0066378,-0.00372047 0.0105551,-0.00480315 0.0028622,-0.000751969 0.00719291,-0.0015 0.013,-0.00219685 0.0118346,-0.00141339 0.0205551,-0.00308268 0.0261378,-0.00505512 5.51181e-005,-0.002 8.26772e-005,-0.00327559 8.26772e-005,-0.00380315 0,-0.00597244 -0.00138583,-0.0101969 -0.00416535,-0.0126102 -0.00372047,-0.00333465 -0.00930709,-0.00497244 -0.0166654,-0.00497244 -0.00688976,0 -0.0119724,0.00119291 -0.0152795,0.00361024 -0.00327559,0.00241732 -0.00569291,0.00669291 -0.00727559,0.0128346l-0.0143071 -0.00197244c0.00130709,-0.00611417 0.00344488,-0.0110866 0.00641732,-0.0148346 0.00297244,-0.00377953 0.00730709,-0.00669291 0.0129449,-0.00872047 0.0056378,-0.0020315 0.0121654,-0.00305906 0.0196102,-0.00305906 0.00738976,0 0.0133622,0.000889764 0.0179724,0.00261417 0.00461024,0.00174803 0.008,0.00391339 0.0101929,0.00655512 0.00216929,0.0026378 0.00366929,0.00594488 0.00455512,0.00997244 0.000472441,0.0025 0.000724409,0.007 0.000724409,0.0135l0 0.0195276c0,0.0136378 0.00030315,0.022248 0.000944882,0.0258307 0.000610236,0.00361024 0.00185827,0.00708268 0.00369291,0.0103898l-0.0153071 0c-0.0015,-0.00302756 -0.0025,-0.00658268 -0.00291339,-0.0106654zm-0.00122441 -0.0327244c-0.00533071,0.00219685 -0.0133031,0.00402756 -0.0239173,0.00555512 -0.00602756,0.000862205 -0.0103031,0.00183465 -0.0127756,0.00291732 -0.0025,0.00108268 -0.00444488,0.00266929 -0.00577953,0.00477953 -0.00135827,0.00208268 -0.00205512,0.00438976 -0.00205512,0.00694488 0,0.00391339 0.0015,0.00716535 0.00444488,0.00977559 0.00294488,0.00258268 0.00727953,0.00388976 0.0129724,0.00388976 0.0056378,0 0.0106654,-0.00122047 0.0150551,-0.00369291 0.00438976,-0.00247244 0.0076378,-0.0058622 0.00969291,-0.0101417 0.00158661,-0.00330315 0.0023622,-0.00819291 0.0023622,-0.0146378l0 -0.00538976z"/>
  <path id="12345678910111213141516171819202122232425262728" class="fil2" d="M2.07864 5.53198l0.0144724 -0.00227559c0.000807087,0.00580315 0.00308268,0.010248 0.00680709,0.0133622 0.00369291,0.00308268 0.00888976,0.0046378 0.0155827,0.0046378 0.00672047,0 0.0117205,-0.00138976 0.0149724,-0.00411024 0.00324803,-0.00275197 0.00488976,-0.00597244 0.00488976,-0.00964173 0,-0.00333071 -0.00144488,-0.00591339 -0.00433465,-0.00783071 -0.002,-0.00130709 -0.007,-0.00294488 -0.0149724,-0.00494488 -0.0107205,-0.00272441 -0.0181929,-0.00505512 -0.0223346,-0.00705512 -0.0041378,-0.00197244 -0.00730315,-0.00472441 -0.00944094,-0.00822441 -0.00214173,-0.0035 -0.00322441,-0.00735827 -0.00322441,-0.0115827 0,-0.0038622 0.000889764,-0.00741732 0.00266535,-0.0106929 0.00175197,-0.00330709 0.00416929,-0.00602756 0.00719685,-0.00819685 0.00227559,-0.00166535 0.00538976,-0.00311024 0.00930315,-0.00427559 0.00394488,-0.00116535 0.00816929,-0.00175197 0.0126693,-0.00175197 0.00677559,0 0.0127205,0.001 0.0178583,0.00294488 0.00514173,0.00194488 0.00891732,0.00458268 0.0113622,0.00791732 0.00244488,0.0033622 0.00411024,0.00780709 0.00502756,0.0133898l-0.0143031 0.00197244c-0.000669291,-0.00444488 -0.00255906,-0.00791732 -0.00566929,-0.0104173 -0.00311024,-0.0025 -0.00752756,-0.00375197 -0.0132205,-0.00375197 -0.00672441,0 -0.0115276,0.00111417 -0.0143898,0.00333465 -0.00288976,0.00222441 -0.00433465,0.00483465 -0.00433465,0.00780709 0,0.00191732 0.000614173,0.00361024 0.00180709,0.0051378 0.00119291,0.00158268 0.00305512,0.0028622 0.00561024,0.00391732 0.00147244,0.000527559 0.00577953,0.00177559 0.0129449,0.00372047 0.0103622,0.00277953 0.0175827,0.00502756 0.0216654,0.00680709 0.00411417,0.00174803 0.00733465,0.00433465 0.00966929,0.00769291 0.00233071,0.0033622 0.0035,0.00752756 0.0035,0.0125276 0,0.00488976 -0.00144488,0.00947244 -0.00427953,0.0138071 -0.0028622,0.00430315 -0.00697244,0.0076378 -0.0123346,0.01 -0.00535827,0.0023622 -0.0114409,0.00352756 -0.0182205,0.00352756 -0.011248,0 -0.0198031,-0.00233465 -0.0256929,-0.007 -0.00588976,-0.00466535 -0.00964173,-0.0115827 -0.011252,-0.020752z"/>
  <path id="1234567891011121314151617181920212223242526272829" class="fil2" d="M2.16197 5.53198l0.0144724 -0.00227559c0.000807087,0.00580315 0.00308268,0.010248 0.00680709,0.0133622 0.00369291,0.00308268 0.00888976,0.0046378 0.0155827,0.0046378 0.00672047,0 0.0117205,-0.00138976 0.0149724,-0.00411024 0.00324803,-0.00275197 0.00488976,-0.00597244 0.00488976,-0.00964173 0,-0.00333071 -0.00144488,-0.00591339 -0.00433465,-0.00783071 -0.002,-0.00130709 -0.007,-0.00294488 -0.0149724,-0.00494488 -0.0107205,-0.00272441 -0.0181929,-0.00505512 -0.0223346,-0.00705512 -0.0041378,-0.00197244 -0.00730315,-0.00472441 -0.00944094,-0.00822441 -0.00214173,-0.0035 -0.00322441,-0.00735827 -0.00322441,-0.0115827 0,-0.0038622 0.000889764,-0.00741732 0.00266535,-0.0106929 0.00175197,-0.00330709 0.00416929,-0.00602756 0.00719685,-0.00819685 0.00227559,-0.00166535 0.00538976,-0.00311024 0.00930315,-0.00427559 0.00394488,-0.00116535 0.00816929,-0.00175197 0.0126693,-0.00175197 0.00677559,0 0.0127205,0.001 0.0178583,0.00294488 0.00514173,0.00194488 0.00891732,0.00458268 0.0113622,0.00791732 0.00244488,0.0033622 0.00411024,0.00780709 0.00502756,0.0133898l-0.0143031 0.00197244c-0.000669291,-0.00444488 -0.00255906,-0.00791732 -0.00566929,-0.0104173 -0.00311024,-0.0025 -0.00752756,-0.00375197 -0.0132205,-0.00375197 -0.00672441,0 -0.0115276,0.00111417 -0.0143898,0.00333465 -0.00288976,0.00222441 -0.00433465,0.00483465 -0.00433465,0.00780709 0,0.00191732 0.000614173,0.00361024 0.00180709,0.0051378 0.00119291,0.00158268 0.00305512,0.0028622 0.00561024,0.00391732 0.00147244,0.000527559 0.00577953,0.00177559 0.0129449,0.00372047 0.0103622,0.00277953 0.0175827,0.00502756 0.0216654,0.00680709 0.00411417,0.00174803 0.00733465,0.00433465 0.00966929,0.00769291 0.00233071,0.0033622 0.0035,0.00752756 0.0035,0.0125276 0,0.00488976 -0.00144488,0.00947244 -0.00427953,0.0138071 -0.0028622,0.00430315 -0.00697244,0.0076378 -0.0123346,0.01 -0.00535827,0.0023622 -0.0114409,0.00352756 -0.0182205,0.00352756 -0.011248,0 -0.0198031,-0.00233465 -0.0256929,-0.007 -0.00588976,-0.00466535 -0.00964173,-0.0115827 -0.011252,-0.020752z"/>
  <path id="123456789101112131415161718192021222324252627282930" class="fil2" d="M2.31031 5.52995l0.0151378 0.0018622c-0.00238583,0.0088622 -0.00680315,0.0157244 -0.013248,0.0206102 -0.00647244,0.0048622 -0.0147244,0.00730709 -0.024752,0.00730709 -0.0126378,0 -0.0226654,-0.00388976 -0.0300551,-0.0116654 -0.00741339,-0.00777953 -0.0111102,-0.0186969 -0.0111102,-0.032752 0,-0.0145551 0.00375197,-0.0258307 0.0112244,-0.0338622 0.0075,-0.00802756 0.0171929,-0.0120551 0.0291378,-0.0120551 0.0115551,0 0.021,0.00394488 0.0283031,0.0118071 0.00733465,0.0078622 0.011,0.0189449 0.011,0.0331929 0,0.000889764 -2.75591e-005,0.00219685 -8.26772e-005,0.00391732l-0.0644449 0c0.000531496,0.0095 0.00322441,0.0167795 0.00805906,0.0218071 0.00483071,0.00505512 0.0108307,0.00758268 0.0180551,0.00758268 0.00535827,0 0.00994094,-0.00141732 0.013748,-0.00425197 0.00380709,-0.00280315 0.00680709,-0.00730315 0.00902756,-0.0135zm-0.0480827 -0.0236929l0.048248 0c-0.000637795,-0.00724803 -0.0025,-0.0127205 -0.00552756,-0.0163346 -0.00466535,-0.0056378 -0.0107205,-0.00847244 -0.0181378,-0.00847244 -0.00672047,0 -0.0123898,0.00225197 -0.0169724,0.00675197 -0.00458268,0.0045 -0.00711024,0.0105276 -0.00761024,0.0180551z"/>
  <path id="12345678910111213141516171819202122232425262728293031" class="fil2" d="M2.37583 5.54468l0.00211024 0.0129449c-0.00411024,0.000858268 -0.00780709,0.00130315 -0.0110551,0.00130315 -0.00533465,0 -0.00944488,-0.000830709 -0.0123898,-0.00252756 -0.00291732,-0.00166535 -0.00497244,-0.00388976 -0.00616535,-0.0066378 -0.00119291,-0.00272047 -0.00180709,-0.0085 -0.00180709,-0.0172795l0 -0.0497205 -0.010748 0 0 -0.0113898 0.010748 0 0 -0.0214134 0.0145827 -0.00877953 0 0.0301929 0.0147244 0 0 0.0113898 -0.0147244 0 0 0.0505276c0,0.00419291 0.000251969,0.0068622 0.000751969,0.00805512 0.000527559,0.00119685 0.0013622,0.0021378 0.00252756,0.0028622 0.00116535,0.000692913 0.00283465,0.00105512 0.005,0.00105512 0.0016378,0 0.00377953,-0.000192913 0.00644488,-0.000582677z"/>
  <path id="1234567891011121314151617181920212223242526272829303132" class="fil2" d="M2.38431 5.53198l0.0144724 -0.00227559c0.000807087,0.00580315 0.00308268,0.010248 0.00680709,0.0133622 0.00369291,0.00308268 0.00888976,0.0046378 0.0155827,0.0046378 0.00672047,0 0.0117205,-0.00138976 0.0149724,-0.00411024 0.00324803,-0.00275197 0.00488976,-0.00597244 0.00488976,-0.00964173 0,-0.00333071 -0.00144488,-0.00591339 -0.00433465,-0.00783071 -0.002,-0.00130709 -0.007,-0.00294488 -0.0149724,-0.00494488 -0.0107205,-0.00272441 -0.0181929,-0.00505512 -0.0223346,-0.00705512 -0.0041378,-0.00197244 -0.00730315,-0.00472441 -0.00944094,-0.00822441 -0.00214173,-0.0035 -0.00322441,-0.00735827 -0.00322441,-0.0115827 0,-0.0038622 0.000889764,-0.00741732 0.00266535,-0.0106929 0.00175197,-0.00330709 0.00416929,-0.00602756 0.00719685,-0.00819685 0.00227559,-0.00166535 0.00538976,-0.00311024 0.00930315,-0.00427559 0.00394488,-0.00116535 0.00816929,-0.00175197 0.0126693,-0.00175197 0.00677559,0 0.0127205,0.001 0.0178583,0.00294488 0.00514173,0.00194488 0.00891732,0.00458268 0.0113622,0.00791732 0.00244488,0.0033622 0.00411024,0.00780709 0.00502756,0.0133898l-0.0143031 0.00197244c-0.000669291,-0.00444488 -0.00255906,-0.00791732 -0.00566929,-0.0104173 -0.00311024,-0.0025 -0.00752756,-0.00375197 -0.0132205,-0.00375197 -0.00672441,0 -0.0115276,0.00111417 -0.0143898,0.00333465 -0.00288976,0.00222441 -0.00433465,0.00483465 -0.00433465,0.00780709 0,0.00191732 0.000614173,0.00361024 0.00180709,0.0051378 0.00119291,0.00158268 0.00305512,0.0028622 0.00561024,0.00391732 0.00147244,0.000527559 0.00577953,0.00177559 0.0129449,0.00372047 0.0103622,0.00277953 0.0175827,0.00502756 0.0216654,0.00680709 0.00411417,0.00174803 0.00733465,0.00433465 0.00966929,0.00769291 0.00233071,0.0033622 0.0035,0.00752756 0.0035,0.0125276 0,0.00488976 -0.00144488,0.00947244 -0.00427953,0.0138071 -0.0028622,0.00430315 -0.00697244,0.0076378 -0.0123346,0.01 -0.00535827,0.0023622 -0.0114409,0.00352756 -0.0182205,0.00352756 -0.011248,0 -0.0198031,-0.00233465 -0.0256929,-0.007 -0.00588976,-0.00466535 -0.00964173,-0.0115827 -0.011252,-0.020752z"/>
  <polygon id="123456789101112131415161718192021222324252627282930313233" class="fil2" points="2.4625,5.55981 2.49709,5.43646 2.50881,5.43646 2.47431,5.55981 "/>
  <path id="12345678910111213141516171819202122232425262728293031323334" class="fil2" d="M2.51987 5.45534l0 -0.0168583 0.0146654 0 0 0.0168583 -0.0146654 0zm0 0.102445l0 -0.0864173 0.0146654 0 0 0.0864173 -0.0146654 0z"/>
  <path id="1234567891011121314151617181920212223242526272829303132333435" class="fil2" d="M2.55684 5.55779l0 -0.0864173 0.0130827 0 0 0.0121142c0.00272441,-0.00422441 0.00633465,-0.00764173 0.0108346,-0.0101969 0.0045,-0.00258268 0.0096378,-0.00388976 0.0153898,-0.00388976 0.00638583,0 0.0116378,0.00133465 0.0157205,0.004 0.00411024,0.00266929 0.007,0.0063622 0.00866535,0.0111417 0.0068622,-0.0100866 0.015752,-0.0151417 0.0266969,-0.0151417 0.00858268,0 0.0151654,0.00238976 0.0197756,0.00714173 0.00461024,0.00474803 0.00691732,0.0120551 0.00691732,0.0219134l0 0.0593346 -0.0145551 0 0 -0.0544449c0,-0.00585827 -0.000472441,-0.0100827 -0.00141732,-0.0126654 -0.000972441,-0.00255512 -0.00269291,-0.0046378 -0.00516535,-0.00622441 -0.0025,-0.00155512 -0.00544488,-0.00235827 -0.00880709,-0.00235827 -0.00608268,0 -0.0111102,0.00202756 -0.0151378,0.00608268 -0.004,0.00402756 -0.00602756,0.0105 -0.00602756,0.0193898l0 0.0502205 -0.0146378 0 0 -0.0561378c0,-0.00652756 -0.00119685,-0.0114173 -0.00358661,-0.0146654 -0.00238583,-0.00325197 -0.00627559,-0.00488976 -0.0117205,-0.00488976 -0.00411024,0 -0.00791732,0.00108268 -0.0114173,0.00327559 -0.0035,0.00216929 -0.00605512,0.00533465 -0.00761024,0.0095 -0.00158268,0.00419685 -0.0023622,0.0102244 -0.0023622,0.0180827l0 0.0448346 -0.0146378 0z"/>
  <path id="123456789101112131415161718192021222324252627282930313233343536" class="fil2" d="M2.69298 5.56495l0.014248 0.00211417c0.000582677,0.00438583 0.00225197,0.00758268 0.00494488,0.00961024 0.0036378,0.00269291 0.00861024,0.00405512 0.0148898,0.00405512 0.00680315,0 0.0120276,-0.0013622 0.0157205,-0.00405512 0.00369291,-0.00272441 0.00616535,-0.00652756 0.00747244,-0.0113898 0.000779528,-0.003 0.00111024,-0.00924803 0.00105512,-0.0188071 -0.00638976,0.00752756 -0.0143622,0.0113071 -0.0239173,0.0113071 -0.0118858,0 -0.0210827,-0.00427953 -0.0275827,-0.0128622 -0.0065,-0.00855512 -0.00977559,-0.0188583 -0.00977559,-0.0308307 0,-0.00825197 0.0015,-0.0158622 0.00447244,-0.0228346 0.003,-0.00697244 0.00733071,-0.0123622 0.013,-0.0161654 0.00566535,-0.00377953 0.0123307,-0.00569685 0.0199724,-0.00569685 0.0101929,0 0.0186102,0.00414173 0.0252205,0.0123898l0 -0.0104173 0.0135276 0 0 0.0746969c0,0.0134409 -0.00138976,0.023 -0.00411024,0.0286102 -0.00275197,0.00561024 -0.00708268,0.0100551 -0.0130276,0.0133031 -0.00594488,0.00325197 -0.013252,0.00488976 -0.0219449,0.00488976 -0.0103071,0 -0.0186378,-0.00233465 -0.0249724,-0.00697244 -0.0063622,-0.0046378 -0.00941732,-0.0116102 -0.00919291,-0.0209449zm0.0121102 -0.0519134c0,0.0113307 0.00224803,0.0196102 0.00677559,0.0248031 0.0045,0.00522441 0.0101417,0.00780709 0.0169173,0.00780709 0.00672441,0 0.0123622,-0.00258268 0.0169173,-0.00775197 0.00455512,-0.00519291 0.00683465,-0.0133031 0.00683465,-0.0243858 0,-0.0105866 -0.00233465,-0.0185591 -0.00702756,-0.0239173 -0.00469685,-0.0053622 -0.0103622,-0.00805512 -0.0169724,-0.00805512 -0.0065,0 -0.0120276,0.0026378 -0.0166142,0.00794488 -0.00455512,0.00527559 -0.00683071,0.0131378 -0.00683071,0.0235551z"/>
  <polygon id="12345678910111213141516171819202122232425262728293031323334353637" class="fil2" points="2.77736,5.55981 2.81194,5.43646 2.82367,5.43646 2.78917,5.55981 "/>
  <polygon id="1234567891011121314151617181920212223242526272829303132333435363738" class="fil2" points="2.83433,5.55779 2.83433,5.43848 2.84898,5.43848 2.84898,5.55779 "/>
  <path id="123456789101112131415161718192021222324252627282930313233343536373839" class="fil2" d="M2.86622 5.51457c0,-0.016 0.00444488,-0.0278622 0.0133622,-0.0355551 0.00741732,-0.00638976 0.0164724,-0.00961417 0.0271654,-0.00961417 0.0118898,0 0.0216102,0.00388976 0.0291378,0.0116969 0.00755512,0.00777559 0.0113071,0.0185276 0.0113071,0.032248 0,0.0111378 -0.00166929,0.0198898 -0.005,0.026252 -0.00333465,0.00638583 -0.00819685,0.0113307 -0.0145551,0.0148583 -0.00638976,0.00352756 -0.0133346,0.00527953 -0.0208898,0.00527953 -0.0120827,0 -0.0218622,-0.0038622 -0.0293346,-0.0116378 -0.00747244,-0.00775197 -0.0111929,-0.0189173 -0.0111929,-0.0335276zm0.0150551 0c0,0.0110827 0.00241732,0.0193583 0.00725197,0.0248583 0.00483071,0.00552756 0.0109134,0.00827953 0.0182205,0.00827953 0.00727953,0 0.0133346,-0.00277953 0.0181654,-0.00830709 0.00480709,-0.00552756 0.00722441,-0.0139724 0.00722441,-0.0253031 0,-0.0106969 -0.00241732,-0.0188071 -0.00727953,-0.0243071 -0.0048622,-0.0055 -0.0108898,-0.00824803 -0.0181102,-0.00824803 -0.00730709,0 -0.0133898,0.00274803 -0.0182205,0.00822047 -0.00483465,0.00547244 -0.00725197,0.013752 -0.00725197,0.0248071z"/>
  <path id="12345678910111213141516171819202122232425262728293031323334353637383940" class="fil2" d="M2.9617 5.56495l0.014248 0.00211417c0.000582677,0.00438583 0.00225197,0.00758268 0.00494488,0.00961024 0.0036378,0.00269291 0.00861024,0.00405512 0.0148898,0.00405512 0.00680315,0 0.0120276,-0.0013622 0.0157205,-0.00405512 0.00369291,-0.00272441 0.00616535,-0.00652756 0.00747244,-0.0113898 0.000779528,-0.003 0.00111024,-0.00924803 0.00105512,-0.0188071 -0.00638976,0.00752756 -0.0143622,0.0113071 -0.0239173,0.0113071 -0.0118858,0 -0.0210827,-0.00427953 -0.0275827,-0.0128622 -0.0065,-0.00855512 -0.00977559,-0.0188583 -0.00977559,-0.0308307 0,-0.00825197 0.0015,-0.0158622 0.00447244,-0.0228346 0.003,-0.00697244 0.00733071,-0.0123622 0.013,-0.0161654 0.00566535,-0.00377953 0.0123307,-0.00569685 0.0199724,-0.00569685 0.0101929,0 0.0186102,0.00414173 0.0252205,0.0123898l0 -0.0104173 0.0135276 0 0 0.0746969c0,0.0134409 -0.00138976,0.023 -0.00411024,0.0286102 -0.00275197,0.00561024 -0.00708268,0.0100551 -0.0130276,0.0133031 -0.00594488,0.00325197 -0.013252,0.00488976 -0.0219449,0.00488976 -0.0103071,0 -0.0186378,-0.00233465 -0.0249724,-0.00697244 -0.0063622,-0.0046378 -0.00941732,-0.0116102 -0.00919291,-0.0209449zm0.0121102 -0.0519134c0,0.0113307 0.00224803,0.0196102 0.00677559,0.0248031 0.0045,0.00522441 0.0101417,0.00780709 0.0169173,0.00780709 0.00672441,0 0.0123622,-0.00258268 0.0169173,-0.00775197 0.00455512,-0.00519291 0.00683465,-0.0133031 0.00683465,-0.0243858 0,-0.0105866 -0.00233465,-0.0185591 -0.00702756,-0.0239173 -0.00469685,-0.0053622 -0.0103622,-0.00805512 -0.0169724,-0.00805512 -0.0065,0 -0.0120276,0.0026378 -0.0166142,0.00794488 -0.00455512,0.00527559 -0.00683071,0.0131378 -0.00683071,0.0235551z"/>
  <path id="1234567891011121314151617181920212223242526272829303132333435363738394041" class="fil2" d="M3.05161 5.51457c0,-0.016 0.00444488,-0.0278622 0.0133622,-0.0355551 0.00741732,-0.00638976 0.0164724,-0.00961417 0.0271654,-0.00961417 0.0118898,0 0.0216102,0.00388976 0.0291378,0.0116969 0.00755512,0.00777559 0.0113071,0.0185276 0.0113071,0.032248 0,0.0111378 -0.00166929,0.0198898 -0.005,0.026252 -0.00333465,0.00638583 -0.00819685,0.0113307 -0.0145551,0.0148583 -0.00638976,0.00352756 -0.0133346,0.00527953 -0.0208898,0.00527953 -0.0120827,0 -0.0218622,-0.0038622 -0.0293346,-0.0116378 -0.00747244,-0.00775197 -0.0111929,-0.0189173 -0.0111929,-0.0335276zm0.0150551 0c0,0.0110827 0.00241732,0.0193583 0.00725197,0.0248583 0.00483071,0.00552756 0.0109134,0.00827953 0.0182205,0.00827953 0.00727953,0 0.0133346,-0.00277953 0.0181654,-0.00830709 0.00480709,-0.00552756 0.00722441,-0.0139724 0.00722441,-0.0253031 0,-0.0106969 -0.00241732,-0.0188071 -0.00727953,-0.0243071 -0.0048622,-0.0055 -0.0108898,-0.00824803 -0.0181102,-0.00824803 -0.00730709,0 -0.0133898,0.00274803 -0.0182205,0.00822047 -0.00483465,0.00547244 -0.00725197,0.013752 -0.00725197,0.0248071z"/>
  <polygon id="123456789101112131415161718192021222324252627282930313233343536373839404142" class="fil2" points="3.13878,5.55981 3.17336,5.43646 3.18508,5.43646 3.15058,5.55981 "/>
  <polygon id="12345678910111213141516171819202122232425262728293031323334353637383940414243" class="fil2" points="3.19575,5.55779 3.19575,5.43848 3.21039,5.43848 3.21039,5.55779 "/>
  <path id="1234567891011121314151617181920212223242526272829303132333435363738394041424344" class="fil2" d="M3.22764 5.51457c0,-0.016 0.00444488,-0.0278622 0.0133622,-0.0355551 0.00741732,-0.00638976 0.0164724,-0.00961417 0.0271654,-0.00961417 0.0118898,0 0.0216102,0.00388976 0.0291378,0.0116969 0.00755512,0.00777559 0.0113071,0.0185276 0.0113071,0.032248 0,0.0111378 -0.00166929,0.0198898 -0.005,0.026252 -0.00333465,0.00638583 -0.00819685,0.0113307 -0.0145551,0.0148583 -0.00638976,0.00352756 -0.0133346,0.00527953 -0.0208898,0.00527953 -0.0120827,0 -0.0218622,-0.0038622 -0.0293346,-0.0116378 -0.00747244,-0.00775197 -0.0111929,-0.0189173 -0.0111929,-0.0335276zm0.0150551 0c0,0.0110827 0.00241732,0.0193583 0.00725197,0.0248583 0.00483071,0.00552756 0.0109134,0.00827953 0.0182205,0.00827953 0.00727953,0 0.0133346,-0.00277953 0.0181654,-0.00830709 0.00480709,-0.00552756 0.00722441,-0.0139724 0.00722441,-0.0253031 0,-0.0106969 -0.00241732,-0.0188071 -0.00727953,-0.0243071 -0.0048622,-0.0055 -0.0108898,-0.00824803 -0.0181102,-0.00824803 -0.00730709,0 -0.0133898,0.00274803 -0.0182205,0.00822047 -0.00483465,0.00547244 -0.00725197,0.013752 -0.00725197,0.0248071z"/>
  <path id="123456789101112131415161718192021222324252627282930313233343536373839404142434445" class="fil2" d="M3.32311 5.56495l0.014248 0.00211417c0.000582677,0.00438583 0.00225197,0.00758268 0.00494488,0.00961024 0.0036378,0.00269291 0.00861024,0.00405512 0.0148898,0.00405512 0.00680315,0 0.0120276,-0.0013622 0.0157205,-0.00405512 0.00369291,-0.00272441 0.00616535,-0.00652756 0.00747244,-0.0113898 0.000779528,-0.003 0.00111024,-0.00924803 0.00105512,-0.0188071 -0.00638976,0.00752756 -0.0143622,0.0113071 -0.0239173,0.0113071 -0.0118858,0 -0.0210827,-0.00427953 -0.0275827,-0.0128622 -0.0065,-0.00855512 -0.00977559,-0.0188583 -0.00977559,-0.0308307 0,-0.00825197 0.0015,-0.0158622 0.00447244,-0.0228346 0.003,-0.00697244 0.00733071,-0.0123622 0.013,-0.0161654 0.00566535,-0.00377953 0.0123307,-0.00569685 0.0199724,-0.00569685 0.0101929,0 0.0186102,0.00414173 0.0252205,0.0123898l0 -0.0104173 0.0135276 0 0 0.0746969c0,0.0134409 -0.00138976,0.023 -0.00411024,0.0286102 -0.00275197,0.00561024 -0.00708268,0.0100551 -0.0130276,0.0133031 -0.00594488,0.00325197 -0.013252,0.00488976 -0.0219449,0.00488976 -0.0103071,0 -0.0186378,-0.00233465 -0.0249724,-0.00697244 -0.0063622,-0.0046378 -0.00941732,-0.0116102 -0.00919291,-0.0209449zm0.0121102 -0.0519134c0,0.0113307 0.00224803,0.0196102 0.00677559,0.0248031 0.0045,0.00522441 0.0101417,0.00780709 0.0169173,0.00780709 0.00672441,0 0.0123622,-0.00258268 0.0169173,-0.00775197 0.00455512,-0.00519291 0.00683465,-0.0133031 0.00683465,-0.0243858 0,-0.0105866 -0.00233465,-0.0185591 -0.00702756,-0.0239173 -0.00469685,-0.0053622 -0.0103622,-0.00805512 -0.0169724,-0.00805512 -0.0065,0 -0.0120276,0.0026378 -0.0166142,0.00794488 -0.00455512,0.00527559 -0.00683071,0.0131378 -0.00683071,0.0235551z"/>
  <path id="12345678910111213141516171819202122232425262728293031323334353637383940414243444546" class="fil2" d="M3.41302 5.51457c0,-0.016 0.00444488,-0.0278622 0.0133622,-0.0355551 0.00741732,-0.00638976 0.0164724,-0.00961417 0.0271654,-0.00961417 0.0118898,0 0.0216102,0.00388976 0.0291378,0.0116969 0.00755512,0.00777559 0.0113071,0.0185276 0.0113071,0.032248 0,0.0111378 -0.00166929,0.0198898 -0.005,0.026252 -0.00333465,0.00638583 -0.00819685,0.0113307 -0.0145551,0.0148583 -0.00638976,0.00352756 -0.0133346,0.00527953 -0.0208898,0.00527953 -0.0120827,0 -0.0218622,-0.0038622 -0.0293346,-0.0116378 -0.00747244,-0.00775197 -0.0111929,-0.0189173 -0.0111929,-0.0335276zm0.0150551 0c0,0.0110827 0.00241732,0.0193583 0.00725197,0.0248583 0.00483071,0.00552756 0.0109134,0.00827953 0.0182205,0.00827953 0.00727953,0 0.0133346,-0.00277953 0.0181654,-0.00830709 0.00480709,-0.00552756 0.00722441,-0.0139724 0.00722441,-0.0253031 0,-0.0106969 -0.00241732,-0.0188071 -0.00727953,-0.0243071 -0.0048622,-0.0055 -0.0108898,-0.00824803 -0.0181102,-0.00824803 -0.00730709,0 -0.0133898,0.00274803 -0.0182205,0.00822047 -0.00483465,0.00547244 -0.00725197,0.013752 -0.00725197,0.0248071z"/>
  <polygon id="1234567891011121314151617181920212223242526272829303132333435363738394041424344454647" class="fil2" points="3.51533,5.55779 3.51533,5.54109 3.53202,5.54109 3.53202,5.55779 "/>
  <path id="123456789101112131415161718192021222324252627282930313233343536373839404142434445464748" class="fil2" d="M3.55163 5.53198l0.0144724 -0.00227559c0.000807087,0.00580315 0.00308268,0.010248 0.00680709,0.0133622 0.00369291,0.00308268 0.00888976,0.0046378 0.0155827,0.0046378 0.00672047,0 0.0117205,-0.00138976 0.0149724,-0.00411024 0.00324803,-0.00275197 0.00488976,-0.00597244 0.00488976,-0.00964173 0,-0.00333071 -0.00144488,-0.00591339 -0.00433465,-0.00783071 -0.002,-0.00130709 -0.007,-0.00294488 -0.0149724,-0.00494488 -0.0107205,-0.00272441 -0.0181929,-0.00505512 -0.0223346,-0.00705512 -0.0041378,-0.00197244 -0.00730315,-0.00472441 -0.00944094,-0.00822441 -0.00214173,-0.0035 -0.00322441,-0.00735827 -0.00322441,-0.0115827 0,-0.0038622 0.000889764,-0.00741732 0.00266535,-0.0106929 0.00175197,-0.00330709 0.00416929,-0.00602756 0.00719685,-0.00819685 0.00227559,-0.00166535 0.00538976,-0.00311024 0.00930315,-0.00427559 0.00394488,-0.00116535 0.00816929,-0.00175197 0.0126693,-0.00175197 0.00677559,0 0.0127205,0.001 0.0178583,0.00294488 0.00514173,0.00194488 0.00891732,0.00458268 0.0113622,0.00791732 0.00244488,0.0033622 0.00411024,0.00780709 0.00502756,0.0133898l-0.0143031 0.00197244c-0.000669291,-0.00444488 -0.00255906,-0.00791732 -0.00566929,-0.0104173 -0.00311024,-0.0025 -0.00752756,-0.00375197 -0.0132205,-0.00375197 -0.00672441,0 -0.0115276,0.00111417 -0.0143898,0.00333465 -0.00288976,0.00222441 -0.00433465,0.00483465 -0.00433465,0.00780709 0,0.00191732 0.000614173,0.00361024 0.00180709,0.0051378 0.00119291,0.00158268 0.00305512,0.0028622 0.00561024,0.00391732 0.00147244,0.000527559 0.00577953,0.00177559 0.0129449,0.00372047 0.0103622,0.00277953 0.0175827,0.00502756 0.0216654,0.00680709 0.00411417,0.00174803 0.00733465,0.00433465 0.00966929,0.00769291 0.00233071,0.0033622 0.0035,0.00752756 0.0035,0.0125276 0,0.00488976 -0.00144488,0.00947244 -0.00427953,0.0138071 -0.0028622,0.00430315 -0.00697244,0.0076378 -0.0123346,0.01 -0.00535827,0.0023622 -0.0114409,0.00352756 -0.0182205,0.00352756 -0.011248,0 -0.0198031,-0.00233465 -0.0256929,-0.007 -0.00588976,-0.00466535 -0.00964173,-0.0115827 -0.011252,-0.020752z"/>
  <path id="12345678910111213141516171819202122232425262728293031323334353637383940414243444546474849" class="fil2" d="M3.66483 5.55779l-0.0328898 -0.0864173 0.0154724 0 0.0185551 0.051752c0.002,0.00558268 0.00383465,0.0113858 0.00552756,0.0174173 0.00130709,-0.00455906 0.00311024,-0.0100315 0.00544488,-0.0164449l0.0192244 -0.0527244 0.0150551 0 -0.0327244 0.0864173 -0.0136654 0z"/>
  <path id="1234567891011121314151617181920212223242526272829303132333435363738394041424344454647484950" class="fil2" d="M3.72147 5.56495l0.014248 0.00211417c0.000582677,0.00438583 0.00225197,0.00758268 0.00494488,0.00961024 0.0036378,0.00269291 0.00861024,0.00405512 0.0148898,0.00405512 0.00680315,0 0.0120276,-0.0013622 0.0157205,-0.00405512 0.00369291,-0.00272441 0.00616535,-0.00652756 0.00747244,-0.0113898 0.000779528,-0.003 0.00111024,-0.00924803 0.00105512,-0.0188071 -0.00638976,0.00752756 -0.0143622,0.0113071 -0.0239173,0.0113071 -0.0118858,0 -0.0210827,-0.00427953 -0.0275827,-0.0128622 -0.0065,-0.00855512 -0.00977559,-0.0188583 -0.00977559,-0.0308307 0,-0.00825197 0.0015,-0.0158622 0.00447244,-0.0228346 0.003,-0.00697244 0.00733071,-0.0123622 0.013,-0.0161654 0.00566535,-0.00377953 0.0123307,-0.00569685 0.0199724,-0.00569685 0.0101929,0 0.0186102,0.00414173 0.0252205,0.0123898l0 -0.0104173 0.0135276 0 0 0.0746969c0,0.0134409 -0.00138976,0.023 -0.00411024,0.0286102 -0.00275197,0.00561024 -0.00708268,0.0100551 -0.0130276,0.0133031 -0.00594488,0.00325197 -0.013252,0.00488976 -0.0219449,0.00488976 -0.0103071,0 -0.0186378,-0.00233465 -0.0249724,-0.00697244 -0.0063622,-0.0046378 -0.00941732,-0.0116102 -0.00919291,-0.0209449zm0.0121102 -0.0519134c0,0.0113307 0.00224803,0.0196102 0.00677559,0.0248031 0.0045,0.00522441 0.0101417,0.00780709 0.0169173,0.00780709 0.00672441,0 0.0123622,-0.00258268 0.0169173,-0.00775197 0.00455512,-0.00519291 0.00683465,-0.0133031 0.00683465,-0.0243858 0,-0.0105866 -0.00233465,-0.0185591 -0.00702756,-0.0239173 -0.00469685,-0.0053622 -0.0103622,-0.00805512 -0.0169724,-0.00805512 -0.0065,0 -0.0120276,0.0026378 -0.0166142,0.00794488 -0.00455512,0.00527559 -0.00683071,0.0131378 -0.00683071,0.0235551z"/>
 </g>
</svg>
